/* XPM */
static char *_619258547791[] = {
/* columns rows colors chars-per-pixel */
"64 64 137 2 ",
"   c #3B2A04",
".  c #412F03",
"X  c #463105",
"o  c #543D05",
"O  c #583D06",
"+  c #5D4406",
"@  c #654706",
"#  c #674907",
"$  c #6A4709",
"%  c #6A4C09",
"&  c #724E06",
"*  c #724F0A",
"=  c #6F5107",
"-  c #745207",
";  c #7A5407",
":  c #7D5A07",
">  c #755209",
",  c #7B5409",
"<  c #7E590A",
"1  c #835D06",
"2  c #8A5E07",
"3  c #815708",
"4  c #845C08",
"5  c #8C5E09",
"6  c #876205",
"7  c #8C6306",
"8  c #8F6C03",
"9  c #8B6309",
"0  c #926407",
"q  c #9C6707",
"w  c #956B06",
"e  c #9B6C06",
"r  c #936509",
"t  c #996609",
"y  c #946809",
"u  c #9A6C09",
"i  c #9C7105",
"p  c #9C710A",
"a  c #A16F07",
"s  c #A16F0C",
"d  c #A47305",
"f  c #A97603",
"g  c #A77D03",
"h  c #AD7C04",
"j  c #A37209",
"k  c #AA7209",
"l  c #AC7B09",
"z  c #B37D06",
"x  c #B97D07",
"c  c #B07709",
"v  c #B47C0A",
"b  c #BB7D0A",
"n  c #BE7C10",
"m  c #C27E06",
"M  c #AD8205",
"N  c #B48205",
"B  c #BB8306",
"V  c #BD8904",
"C  c #BB8309",
"Z  c #C28507",
"A  c #C48A05",
"S  c #C98C06",
"D  c #C38608",
"F  c #CE830F",
"G  c #C48A08",
"H  c #CB8B09",
"J  c #D58E06",
"K  c #D28E08",
"L  c #C59104",
"P  c #CD9205",
"I  c #CE9E06",
"U  c #D39305",
"Y  c #DA9505",
"T  c #D49B06",
"R  c #DC9B06",
"E  c #D79308",
"W  c #D99409",
"Q  c #E78B08",
"!  c #E49705",
"~  c #E29B06",
"^  c #EF9E03",
"/  c #E99E08",
"(  c #CBA107",
")  c #DEA406",
"_  c #D1A903",
"`  c #D6B704",
"'  c #DCB405",
"]  c #D3BC04",
"[  c #DBBC05",
"{  c #E3A205",
"}  c #EBA405",
"|  c #E4AA04",
" . c #EBAA05",
".. c #E6A30D",
"X. c #F3A506",
"o. c #F5AB06",
"O. c #FAAC06",
"+. c #E6B505",
"@. c #EBB305",
"#. c #E5BE04",
"$. c #ECBC05",
"%. c #F2B205",
"&. c #F9B305",
"*. c #F4BC05",
"=. c #FCBD05",
"-. c #D1C603",
";. c #D9C703",
":. c #D5CB04",
">. c #DFCB06",
",. c #DDD404",
"<. c #DCD903",
"1. c #E5C303",
"2. c #ECC304",
"3. c #E4CB05",
"4. c #EBCB04",
"5. c #F5C305",
"6. c #FCC205",
"7. c #F3CB05",
"8. c #FDCA04",
"9. c #E4D305",
"0. c #EBD605",
"q. c #E4DB05",
"w. c #EDDB05",
"e. c #F3D204",
"r. c #FCD404",
"t. c #F2DB04",
"y. c #FEDC04",
"u. c #E7E202",
"i. c #ECE404",
"p. c #EEEA04",
"a. c #F3E504",
"s. c #FCE305",
"d. c #F2ED03",
"f. c #FDEC03",
"g. c #F5F302",
"h. c #F9F503",
"j. c #FDFC01",
/* pixels */
"j.j.j.j.j.j.j.j.j.j.j.j.j.j.P 6.r.~ O.} C B : o f q j ,   5 * m m 4 r * n l F F 3 B / w Y A { y.y. .j.j.8.j.j.j.j.j.j.j.j.j.j.j.",
"j.j.j.j.j.j.j.j.j.j.j.j.j.r.K h.j.T O.O.N H 7 + l b 4 # X , * $ * 3 * > v r y 9 @ h R 1 J J Y &.&.T j.j.f.y.j.j.j.j.j.j.j.j.j.j.",
"j.j.j.j.j.j.j.j.j.j.f.j.h.h.o.d.r.A %.o.C W K u ..v 3 3 > r $ 3 s r s * < + * 4 @ l V 1 Y X.} 6.%...h.h.j.h.j.j.j.j.j.j.j.j.j.j.",
"j.j.j.j.j.j.j.h.j.g.g.e.g.g.V a.4.z m D w S G r v > = 9 > , $ > % O $ $ 4 < < p p H Z 2 W +.R 0.*.4.g.h.a.g.g.j.j.j.j.j.j.j.j.j.",
"j.j.j.j.j.h.h.j.h.j.j.h.g.g.G e.w.S W / G J H 7 r > : s t 9 k k y # * ; r r 9 s l G i 1 / $.U a.w.7.g.g.g.g.g.j.j.g.j.j.j.j.j.j.",
"j.j.j.j.j.j.h.h.g.g.7.a.d.p.l ..$.N U ) C H C 7 7 3 y r 6 > j t 7 3 r > 4 r r r t v e 6 { R z @.o.Y p.p.g.g.j.g.g.g.j.j.j.j.j.j.",
"j.j.j.j.j.j.g.g.g.g.7.a.d.p.V | 9.Y S A 2 B B 2 0 : t 2 > ; 4 D v C l > > 9 4 r w H v 7 T Z w | 0.N 2.p.w.d.g.p.g.g.g.g.j.j.j.j.",
"j.j.j.j.g.g.g.g.d.g.h.d.i.i.P $.t.B S ~ a Z H z 2 y p k r 6 u W v t Q v j u w y j Y z z W  .H i.a.e 2.p.e.p.d.d.g.g.g.j.j.j.j.j.",
"j.j.j.j.j.g.g.g.g.p.t.u.<.<.A ) >.G P H 7 h d k u 0 u j 7 = < 6 o X & 2 7 4 0 G l B t e I ~ e [ q.1 { u.u.u.i.h.g.p.j.j.g.j.j.j.",
"j.j.j.h.g.h.d.g.p.f.a.1.w.i.U 2.0.X.C A d N B z W Z z x m j C C : w H Z G z x J s z N d W o.N 7.y.} a.f.u.4.h.u.p.g.g.g.g.j.j.j.",
"j.s.j.g.g.g.d.d.u.4.j.2.4.f.} 3.9.} X.{ C G B i Z h M l x x R / H H U U W H Z G z z D B Y } ! 9.a.} <.q.@.j.i.q.g.e.e.h.g.f.j.j.",
"8.f.j.a.g.d.t.4.u.u.2.a.,.] N ) ' z P ) N z u k C 7 : w 7 7 6 7 k e B u Z z 7 z w d Z B N M U [ :.` -.] a.$.#.u.d.t.a.h.t.j.j.j.",
"j.j.h.g.g.d.u.p.i.f.w.;.f.4.B *.&.P P R z W U ( ~ J ~ ~ E E W R } o.o.P ~ ) S ~ A A ~ W R R $.0.4.B  .h.:.#.i.u.i.p.d.g.g.h.h.j.",
"j.j.h.g.g.u.2.5.} a.q.,.$.h.N V &. .) ~ d } o.~ @.B ~ $.@.X.R P =.&.*.W R U D S P B %.A A R Y } 0 1 h.1._ s.a.q.a.i.p.g.d.j.r.j.",
" .G W *.5.) N d 8 } | [ L M 6.M T Y U @.U { B w U 7 h G W } R R Y U B V P C W C V X.} C U @.{ } J 8.d h h  .R L W V i N C O.U P ",
"s.=.=.2.t.%.0.w.q.s.s.-.0.M +.f.*.%.%.0.` w.7.[ q.! %.a.w.6.=.y.y.h.7.4.w.+.9.t.3.0.9.' &.5.S X.f.0 f 5.R 3.1.) +.| } 7.i.a.g.8.",
"y.=.6.0.d.o.! q.[ 4.0.` e.%.o.*.f.+.M 9.:.t.s.q.i.4.@.w.2.=.6.s.6.h.a.i.7.} | +.{ #.3.R *.f 0 f.^ A 5.&.' 9.w.>.t.9.+.t.2.7.j.y.",
"R R } W H h 7 U w B { U +.U W _ M =.M P [  .} w d B { 5.*.Y H  .P U o.B N i V T L R  .h h d 8.J } } %.U B } X.A B Y N P V B E W ",
"U ) } @.$.~ B @.{ X.} d { )  .&.V N h.%.,.q.a.} 2.2.i.h.g.j.j.j.j.r.j.d.d.d.a.a.<.a.a._ 1.h.1 7 } Y R A A o.N P S A K R T %.&.=.",
"R W W W ~ ~ J ~ ( U Y z R S U %.*.V 4.h.;.u.f.u.p.i.d.d.g.g.h.j.j.j.g.g.g.d.i.i.u.i.$.,.h. .B 4.0.$.R Y T ~ A A ~ H ) ~ P O.O.} ",
"7 1 6 7 w : 8 C d u z B ) H z ` ) N ` ,.a.5.u.u.4.w.d.g.a.h.f.8.j.j.h.t.h.a.w.d.u.#.$.a.] -.` :.[ U M z B B k w N 7 z B u C u k ",
"/ ~ B x l l v C i B Z B } X.} 9.9.} s.4.$.j.4.u.d.d.g.g.h.j.s.j.j.j.f.j.h.e.e.g.0.p.j.+.,.q.} s.9.! } Y B A h z G Z K W K E P A ",
"B C a m x v Z E x C N d G B X.w.2.U i.q.1.d.h.d.g.g.h.h.j.j.j.j.j.j.h.g.g.g.g.d.u.h.4.q.f.a.} s.7.B X.Y d z C k K x l D Z S y : ",
"6 : = 7 k w 0 u j d l 7 H P G 3.) A <.<.w.t.p.d.g.g.g.h.h.j.j.j.j.j.j.j.j.h.d.d.h.p.u.u.u.) 1 q.;.e ~ I i y x l G 0 2 7 2 -   + ",
"W u 4 r j u t 6 x H Z a ~ A V t.$.P i.p.d.g.g.d.h.g.g.j.j.j.j.j.j.j.j.h.j.h.g.h.d.d.d.0.a.2.i a.i.P } R v x Y j y w u j v Q t l ",
"D 5 ; > 6 u 3 7 5 B Z 2 A S Y 9.| B i.d.a.e.d.g.g.h.g.j.j.j.j.j.j.j.j.j.g.g.g.g.p.g.p.a.p.2.N e.{ w A T 7 h H w y : 7 ; > l C v ",
"t j > 6 r t 3 0 4 C K x ) U v $.} g d.d.p.e.h.h.j.g.j.j.j.j.j.j.j.j.j.j.j.j.g.g.g.h.g.g.p.i.Y @.@.z R ~ 6 u v y r r r 4 ; 7 3 0 ",
"k k 9 y s < > r r H U A ~ E S w.7.L d.g.h.h.h.h.h.g.j.j.j.j.j.j.j.j.j.j.j.j.g.j.j.h.g.g.g.g.5.w.a.P $./ 1 a G l j 7 r r , > # r ",
"> @ , , 5 * > l y Z G w D m N 4.i.V h.g.e.h.h.j.j.h.j.j.j.j.j.j.j.j.j.j.j.h.j.g.j.g.g.a.g.g.7.$.0.R +.R 1 C H i s 3 , 3 $ $ o % ",
"4 @ t * 3 < b ..p P E C O.%.A r.d.o.h.h.h.f.h.j.j.j.j.j.j.j.j.j.j.j.j.j.j.j.j.j.j.j.j.h.h.h.| &.6.} } W 6 G l # 4 * O 4 > s r p ",
"$ % 3 X % 4 b l + 6 H N O.O.Y h.h.P r.j.j.j.j.j.j.j.j.j.j.j.j.j.j.j.j.j.j.j.j.j.j.j.s.f.j.j.T O.&.R J K 6 Y l @ 9 r r v , * < * ",
"F * 5   > s q k o 1 x V } O.~ y.=.U j.j.j.j.j.j.j.j.j.j.j.j.j.j.j.j.j.j.j.j.j.j.j.j.j.8.j.j. .y.y.~ S W w / C 3 K F l v * r < n ",
"n 4 r * v l H K 3 C { w Y A { y.y. .j.j.8.j.j.j.j.j.j.j.j.j.j.j.j.j.j.j.j.j.j.j.j.j.j.j.j.j.I =.y.) O.X.B B 1 o k e j ;   5 > F ",
"* , * , c r r 2 @ c ~ : K J W &.&.T j.j.h.y.j.j.j.j.j.j.j.j.j.j.j.j.j.j.j.j.j.j.j.j.j.j.j.r.K h.h.W O.O.z H 6 + l x 4 % X , * $ ",
"s r s , 4 O & 2 @ h G 6 Y } } 6.O.| h.j.j.h.j.j.j.j.j.j.j.j.j.j.j.j.j.j.j.j.j.j.j.j.f.j.h.h.o.a.e.G %.X.B E H p ..v 3 3 * t $ 3 ",
"% o $ $ 4 > < p u H Z 4 R @.R 0.$.7.g.g.a.g.h.h.j.j.j.j.j.j.j.j.j.j.j.j.j.j.j.j.h.h.g.7.h.g.V p.7.x m D w H A r v * * 6 > , $ * ",
"r # * * r r 9 j l G d 1 / $.P a.w.5.g.g.d.g.j.j.h.j.h.j.j.j.j.j.j.j.j.j.j.g.j.g.j.h.h.h.g.g.L 7.w.P E ~ A E A 0 r > , j u 9 k k ",
"r < 9 < 4 r t r y z e 1 ~ R N @.%.Y i.d.d.g.g.g.g.g.j.h.j.j.j.j.j.j.j.j.j.j.h.h.h.h.e.a.d.p.h | #.v W ) z K C 2 0 3 u r 4 > s t ",
"v D l > : 6 1 y y G z 7 W V w ..e.N 2.p.i.d.g.d.g.g.h.h.j.j.j.j.j.j.j.j.h.j.h.g.g.d.e.a.p.i.B | 9.W H A 7 B C 2 7 3 t 6 > > 5 D ",
"l t Q l j u w y d W x z R  .P w.p.w 2.p.0.p.g.d.h.g.g.j.j.j.j.j.j.j.j.h.j.g.g.g.d.d.h.d.p.i.P $.t.V A ~ a Z K x 4 t u j r 9 u W ",
"o . * 2 7 4 0 Z k B 0 a I ~ i ;.q.1 ) i.u.u.u.h.d.g.g.j.g.j.j.j.j.j.j.j.h.g.g.g.d.p.t.u.<.<.A ) >.A P H 7 l d k u y u k 7 - : 7 ",
"4 r H Z G c x E d C N p W o.N 5.s.} a.f.u.4.h.u.d.g.g.g.g.j.j.j.j.j.j.h.h.h.g.g.d.f.d.1.q.w.U 2.w.X.C A d N C z W Z z v x a C N ",
"G H W U W H Z G z z A Z Y } ~ 0.t. .,.q. .j.d.0.f.4.e.h.g.f.j.j.j.y.j.g.g.h.d.d.u.4.j.2.2.f. .3.9.} X.} B A B i Z v h l x x ~ / ",
"d e B e Z z 9 N e d B B N h U ] :.' -.] d.$.#.u.d.w.a.h.t.j.j.j.8.f.j.a.g.d.w.4.u.u.2.t.<.` N | ' z S ) x z u d N 7 1 w 7 7 1 7 ",
"} O.O.P ~ ) A ~ A Z ~ T Y R $.e.4.B @.h.:.#.i.q.u.p.d.g.g.h.j.j.j.j.g.g.g.p.i.p.a.h.w.;.h.4.N *.&.P L R z Y E ( ~ J ~ R T U W R ",
"=.&.*.T R U A S P N %.A A Y Y  .0 1 h.1._ s.a.q.a.a.d.g.g.h.r.j.j.h.j.g.g.p.2.2.} a.q.,.*.h.N V &. .) { j } X.) @.C ~ $. .X.R I ",
"Y E B B P B Y B A X.} B U *.{ } J 8.d h h } R L T V i v C o.U P  .H Y *.$.{ C j 8 } | [ P M 5.M _ U U @.P { B w U 7 h H W } R R ",
"y.h.7.4.w.+.3.t.3.w.9.' &.*.S ^ f.7 f 5.R 3.1.) +.| } e.i.a.h.6.s.6.=.$.w.%.0.i.9.s.s.-.4.M +.f.&.%.%.e.` w.7.[ 0.! %.a.0.8.=.y.",
"6.g.a.a.7.} | +.| #.3.R 5.f 0 f.^ S 6.&.[ 0.w.>.t.9.@.w.4.7.h.y.y.6.6.w.d.%.! q.[ 2.w.` e.%.%.*.f.+.M 4.-.y.s.q.w.4.@.t.$.5.=.s.",
"P U o.C N p B T L R  .h h d 8.J } { @.U B } X.A B U B P V x E R R R } Y S h 0 K y B { U +.U Y T M 6.M L [ |  .w i V ) 5.*.Y S  .",
"j.r.j.d.g.p.i.a.<.a.f._ 1.h.1 0 } Y R A A o.B P S S K R T *.&.=.U R X. .$.! B @.{ X.} d { )  .&.V M h.*.,.q.a.} 5.2.u.g.g.h.j.j.",
"j.h.h.g.g.d.p.i.q.i.#.:.h. .B 4.0.$.R W T ~ Z A ~ A ) ~ S O.O.} R W W U ~ R E ~ ( U W z R P U %.5.V 4.f.;.u.f.p.p.p.p.g.g.h.j.j.",
"j.j.j.t.h.a.t.d.w.#.$.a.] -.' -.[ U M N B B d w v 7 z B e B a k 9 4 6 7 y : 7 N d w z B { H N ' ) N ` ,.a.$.u.u.4.w.g.g.a.j.f.8.",
"j.j.d.h.h.e.e.d.0.d.j.+.q.q. .t.0.Y } W V G z z G Z K W U W H A { ~ B B l l z A p B A B { X.} 9.4. .a.4.2.j.4.u.d.p.g.g.h.h.s.j.",
"j.j.j.h.h.g.g.p.u.h.4.u.f.a.} y.5.B o.W j z x j K x v G G H w 1 B B s x x z Z W z C N d A B X.w.2.U i.u.1.d.f.p.g.g.h.h.h.j.j.j.",
"j.j.h.h.j.h.p.g.g.p.u.u.u.) 1 q.;.w ! I a w x h G 7 3 7 4 & . o 6 : = 0 k u 0 e j d l 7 S P A >.) G ,.<.w.t.p.g.g.d.h.j.h.j.j.j.",
"j.j.j.g.j.g.g.j.d.d.p.e.i.1.i a.w.P  .R v v W j y p s j v Q r l W u 6 9 k u t 6 z K Z k R A A t.$.P a.i.d.g.d.g.h.g.g.j.j.j.j.j.",
"j.j.j.j.h.g.g.g.d.g.d.a.p.2.N 0.| w V W 7 v G w y < 9 * * c C n D 5 , > 4 u < 7 2 C x 2 A S Y 9.| V i.d.a.e.g.g.g.h.g.j.j.h.j.j.",
"j.j.j.j.h.j.g.g.g.g.g.d.d.p.Y o.@.z ! ) 6 e v w 9 t r 4 > r < 9 t u > 4 r y 3 0 6 C K x ) U z #.{ h d.d.a.e.g.h.h.g.j.j.j.j.j.j.",
"j.j.j.j.j.h.g.j.j.h.g.g.g.g.5.w.a.P $./ 1 e H l j 9 r r , * % 9 k k r u s , , r 0 A E D / E S w.7.L d.d.h.h.h.j.j.g.j.j.j.j.j.j.",
"j.j.j.j.j.j.j.h.j.h.g.a.g.g.2.$.0.R +.W 2 V G e p : ; 3 $ $ o % > @ , > 6 > > l y G H w G Z v 4.i.V h.g.r.g.g.g.j.j.j.j.j.j.j.j.",
"j.j.j.j.j.j.j.j.j.h.j.j.j.h.| &.6.} X.Y 1 G l @ 2 - O 4 < s r s 4 $ t > 3 3 x ..p H E B X.%.G r.d.O.j.h.h.h.j.j.j.j.j.j.j.j.j.j.",
"j.j.j.j.j.j.j.j.j.j.s.f.j.j.T &.&.R J U 1 R c @ 7 y r v > * 3 * $ % , X # 5 b l + 6 H N O.O.W j.g.P r.j.j.j.j.j.j.j.j.j.j.j.j.j.",
"j.j.j.j.j.j.j.j.j.j.j.8.j.j. .y.y.~ D Y w / B 3 K F l v * r 3 m F * 5   ; p q k o 1 B C X.O.R y.=.P j.j.j.j.j.j.j.j.j.j.j.j.j.j."
};
