/* XPM */
static char *_619258588353[] = {
/* columns rows colors chars-per-pixel */
"64 64 54 1 ",
"  c #88BFEC",
". c #85C0EE",
"X c #8BC3EE",
"o c #95C3E7",
"O c #98C3E7",
"+ c #94C4ED",
"@ c #9BC6ED",
"# c #96CAEE",
"$ c #9EC9EE",
"% c #86C2F3",
"& c #8CC5F1",
"* c #8EC9F9",
"= c #93C6F1",
"- c #99C6F1",
"; c #95CAF2",
": c #9CCCF2",
"> c #92CEF9",
", c #9DD0F5",
"< c #96D0FA",
"1 c #9AD1F9",
"2 c #A9C7E7",
"3 c #AFCAE7",
"4 c #A2C6ED",
"5 c #A3CBEE",
"6 c #ACCDED",
"7 c #B2CEEC",
"8 c #B8CEEB",
"9 c #ADD1EF",
"0 c #B4D1EE",
"q c #BBD2EE",
"w c #A4CDF2",
"e c #ABCEF1",
"r c #A5CFF8",
"t c #B1CFF1",
"y c #A5D1F4",
"u c #ACD2F4",
"i c #A3D4F9",
"p c #ACD5F9",
"a c #ACD9FB",
"s c #B4D3F2",
"d c #BBD5F2",
"f c #B7D8F7",
"g c #BCD9F5",
"h c #B2D7F9",
"j c #B8D7F8",
"k c #B4D9F9",
"l c #BDDBF9",
"z c #C1D5EE",
"x c #C0D7F2",
"c c #C2DAF5",
"v c #C8DBF6",
"b c #C2DDF9",
"n c #C8DEF8",
"m c #C5E0FC",
/* pixels */
"dses6uw455$$yywuw5ehu390dqgdqqxcj8cd8zxzzvzzccvdgjjd7sss5sds0sds",
"dsseeupw55y$iw$55weks337ddcqqqxvjxcx8q88zxzzccddjqjqdsdsess06ess",
"ttse6pup9yw$w@455uaks97787ddqcvxxdvvq888xxcvccq8q78qgcgs7ss87sse",
"6766ukuu5$$$5#$w69alg000sddxvvxzxdxbxdvqzxzzcddjt7tgccd77ss7st6e",
"ssdjuhew$$$w::w59sulg737ddgc8x8z7qddcccqq8qxxbgdqddcgtsstss7dtte",
"sss76ypw$$O,:$y9s99gf9s77gcxqdzq8qqdccxdd7zcccxddjjqdq7ssee7djds",
"tt765wpiy#,w$wusufskf0q0dd8dqd7qqq8cxddxddgcczdddgj7t770st5ssdjs",
"e6s5ew:wywy559a909sklgqqts63788xx8dddqqdddcccxddtjjtt7t87tssssse",
"s6u555@$ayuu9w$96usglfdsd7ttdddvq88qd00q0ssdqsddsjsss00gdjs67tts",
"s0ue5555uka99w$wss0sffg0dt77jgcqq78t600gssuss76qhgflmgg0ssh07ss7",
"ss7699669fa5$y9wtsdqlsssdddddd83677t56esseeu0660s0dfgfgggdddtss7",
"76070966uay#$yuuss77gsssddjjdgt222663e4useeuhs7s0s96ss0g7dssttss",
"sdd00055wpy5599uuss0qdgddgdjsjspe225554ww66wpsssessss0sg0qdstddj",
"gddds95wypppww5y6sdd0gmdsddheewuw44455uww5uw5hett6tsdqggl0737dsd",
"ld000uupup9yw:uu00ddqbdtss65ew44@wrw6wuw:4ywwre5essqsgglgg007stc",
"cs770ssspp65yukggdgcdgsteee244weww--4www$:w:::uhsss0sg0dddq7ddtc",
"d70g0s0haussffslgggggqsueerw44@www@#55,,;&=,:,ykfjslggqdqdqddq7q",
"bdddds0s99ssssfflfsss9skepur44www$@$,#$,<&&;-;yajstgddddddggbggg",
"bggggg0s090sgssffsff999uuuuw@4epyw#+#X=#XX&<,,,yjtsgdddddddddddb",
"bmcssgdgdgdggfgk09fk669u5euheewe4$o+X.XX#=X&i,;5ksdg0qdlcglmmbbb",
"dqq800ccd0fsssskusfu66phu59pk955w:+&X...##=.=i,,us0gggfblcgcbxdd",
"0qqq80gdq099s0gssu6u6weu6we9saw$$,-XXXXX#,#;;:$,uhkdu0dddqddq0qd",
"g0ddqqqq0qs0000s9uue66uhu999uay:,;:+X&XX,,,<=:wryrkk960ddqdq78qd",
"qqdqqdd8dddds39suhpuu99su959w,$:ii,#;#;<1,i,-1:i:46ususdqqqsdqqq",
"q0qqqdx8qxq039ssska96s3uurwey5wo#5ay,<<*%;w#++:,@@ws77sd0dddd8dc",
"g00qxzdqqdd090sssu9665eyuwwyuu9ywwyi,,1+X=:5$--w@@wu666tsddx8d8d",
"qsdqdxzddddssss003655ueue:wwu9ss959ai,-=+=:5w--::$rrue6e67ddddcc",
"qdddgxxxqqd00sss0q35ep5euur6669swww5y$:;+=@ww:=@:4wwes7t70ddddqd",
"qdgdgdqxqqq07sjs9s6ee55ehkhs69eeer55a5$y+;-:ww:O@5uwwsss7tqxdjqq",
"qqcdddqzqqqq00j7tsssteeeksteesseeuu6pu55-:@@wu4#O5yp6ttettddxvqq",
"qqddqqq8qzqqqdssstdssseh0uu6ests7tu6u9w5:@@+wu54$5ph57ht77qdxdq8",
"x0gd8qzzzvzxdlcddgdjsthses0uwest7tes9uw$::@@wyww55pk55ssd7dqzvvc",
"c8cd8zxqzvxxgccggggd0ssswsgsesssdteswuw455$$,ywu5wwk9690g0gd8zxv",
"ddcx8qq8zxzzccdddsddqdsst0ss7ttjddsseupw5w9$yy$56wek0630dqcqd8xc",
"cdcnz88qzxcvvgq8t70qdbds7s087sttett69pspuww$y@555uufs0330qddzcxv",
"cqccxdcqzxzxdcdc877gcgd76ss7st7e767e9huu5$$$:#$56uplgs0q0dgdcvxx",
"8dddccczz8qxcccddddbd0ss7ss7jseessjsuhyy$$$y:$,5usslg997ddjxqz8z",
"78qdccdd88xcccxdgjjdd00sse6tdfsdsss065py:$@$:$w9u09kg900tdcxqdz8",
"x8qdxxdcddccczdddjj7s777st6ssddste775wpiy#,w55us0ksff000qd7d8d88",
"x8dddqqtqdgccdsdtjd6s30q6ssessstt6t56w:wy$y5wua9u0sklsqqtt83tt8c",
"880q0s080ddddsdgssjsd0ddgss6tsttseswww5$puuu9559909flgdsjtttgqgc",
"8887700gssutt77shjffllddd0s07tststee5455uka9w5$w9ssdfkdqdq67dccd",
"767t3e9ssueus660tsdjfggsgsdd7ss70tt699699fuw:wy6ssdqfsssddtddd73",
"2267565yueeuh070qtt7sssg0gssstss76s83965yai$$uuuus09gsssddgjdg72",
"e5553w5w56eehsss7usss00gdq0stsddsdd78655yau55wuu9sd0qdbqdjdjshth",
"w44445uwwe5wwpeee9sddddlls73tssggdddsu65yuuaw55u9sdd0mbsdddjtewu",
"@wiw55uw@wwrwru6ts00gsgfgg07qstcgddssspauu9ww,9utsddqgdttst4ew44",
"ww4@4:ww:@w:::pssss0sdsdgdqq7dsccs767sssauy59ppgdddcdcdteee444ee",
"ww-@$yy,###,,,ykfjslggqddqddd77dq00dqsssauusffsfldfdg0khe6rw44@4",
"w:@-$,$,>.&;;;,asssgdgqddddccggcbdddds0999ssfsfllgssg00puuuw444w",
"w4@++&##XX&<y,:yfssgddqdddddjggcbgggfgqs000sgssssfff6euupepr44rp",
"5$++X..X#&&&,,;yfssgtddcgglmbbcbmmgsfdgdggfggfffs9ff756u5eehp6we",
"5:+&X...:#&.#i,,us0dgglllcgcccddd0qqq0dc00sfssdsussh66uhw99sa955",
"$,;X%XXX#$#>=,$,ihgkusddqdgq0qqd0qq00qdcq009s0dfuu9u6e6u6y99sa5w",
",,$+X=XX,,,,+,5yyeks96sdddqqqqqdddqgqqdq0q0s07s99uu669uhp99wupw,",
"ii:+-#;>11i,=:,i:4eusstdqqdd00qqqqqqqqg0ddd0s9ssukpuuu9uu559wy:$",
"owai:;1*%,:$++:,@+ws070dttdddqdgq00qqdxqzdd060ssshhe6u6upyweu5w+",
"wwpi,11&%=$5#@:w@:wu966etddxqdqqd0qddzqqqdq06sssssu5666uu5wryuu5",
"95yai1==+=#y4-;::4ryue7s77ddddgcd0dqqcdddqds0ss003635ueurw:eu90k",
"www4ww::+#:4w:--4$wwue7e7dqdcdqxqddddxzcdqqs0ss00053wu5euue59690",
"uw4wa6$y+=-$ww: O5pwesst77dddddqqddqdxqxd8q87sjs0s3eew56hkhs993u",
"9uu6uu5y::@@wew4Oyuuwtse7tdxzcqqqqcgddqdq88qtdj7usssueewgste5usu",
"7su6u654-@+@wee4$4pk56st73dqzzq8qdddqqqzzzxq8ddths0sssuh9steehu7",
"76esuue:w::@:ewww5uj55thd7ddzvmddqddq8zzzxxgjccddgfds9sh6sseeest"
};
